<svg xmlns="http://www.w3.org/2000/svg" width="900" height="1600" viewBox="0 0 900 1600"><rect width="100%" height="100%" fill="#DDDDDD"/><path fill="#999999" d="M194.935 784.68q0 6.42 3.31 9.78 3.32 3.37 9.41 3.37 3.18 0 5.67-1.01t4.19-2.75q1.7-1.75 2.57-4.14.88-2.38.88-5.14 0-3.13-.96-5.59-.95-2.47-2.7-4.16-1.75-1.7-4.16-2.6t-5.28-.9q-2.96 0-5.35.98-2.38.98-4.08 2.73t-2.6 4.16-.9 5.27m-6.41 53.64 23.8-29.73q.9-1.12 1.69-2.18.8-1.06 1.54-2.12-2.65 1.7-5.83 2.57-3.18.88-6.68.88-3.97 0-7.79-1.38t-6.78-4.16q-2.97-2.78-4.8-6.89t-1.83-9.62q0-5.14 1.91-9.64 1.91-4.51 5.35-7.9 3.45-3.39 8.27-5.35 4.82-1.97 10.65-1.97 5.89 0 10.58 1.86 4.69 1.85 8 5.19t5.09 8.01q1.77 4.66 1.77 10.23 0 3.55-.61 6.73t-1.72 6.12-2.7 5.75-3.55 5.56l-17.55 25.02q-.9 1.27-2.7 2.15-1.8.87-4.08.87zM297.755 800q0 10.02-2.14 17.41-2.15 7.4-5.94 12.22t-8.96 7.18-11.15 2.36q-5.99 0-11.11-2.36-5.11-2.36-8.88-7.18-3.76-4.82-5.88-12.22-2.12-7.39-2.12-17.41 0-10.07 2.12-17.44 2.12-7.36 5.88-12.19 3.77-4.82 8.88-7.18 5.12-2.36 11.11-2.36 5.98 0 11.15 2.36t8.96 7.18q3.79 4.83 5.94 12.19 2.14 7.37 2.14 17.44m-13.51 0q0-8.32-1.22-13.78t-3.26-8.69-4.69-4.53-5.51-1.3q-2.81 0-5.44 1.3-2.62 1.3-4.63 4.53-2.02 3.23-3.21 8.69t-1.19 13.78 1.19 13.78 3.21 8.69q2.01 3.24 4.63 4.53 2.63 1.3 5.44 1.3 2.86 0 5.51-1.3 2.65-1.29 4.69-4.53 2.04-3.23 3.26-8.69t1.22-13.78m74.99 0q0 10.02-2.14 17.41-2.15 7.4-5.94 12.22t-8.96 7.18-11.15 2.36q-5.99 0-11.11-2.36-5.11-2.36-8.88-7.18-3.76-4.82-5.88-12.22-2.12-7.39-2.12-17.41 0-10.07 2.12-17.44 2.12-7.36 5.88-12.19 3.77-4.82 8.88-7.18 5.12-2.36 11.11-2.36 5.98 0 11.15 2.36t8.96 7.18q3.79 4.83 5.94 12.19 2.14 7.37 2.14 17.44m-13.51 0q0-8.32-1.22-13.78t-3.26-8.69-4.69-4.53-5.51-1.3q-2.81 0-5.44 1.3-2.62 1.3-4.63 4.53-2.02 3.23-3.21 8.69t-1.19 13.78 1.19 13.78 3.21 8.69q2.01 3.24 4.63 4.53 2.63 1.3 5.44 1.3 2.86 0 5.51-1.3 2.65-1.29 4.69-4.53 2.04-3.23 3.26-8.69t1.22-13.78m97.68 20.78-6.95 6.83-17.96-17.96-18.13 18.07-6.94-6.84 18.12-18.18-17.28-17.27 6.89-6.89 17.28 17.27 17.17-17.17 7 6.89-17.22 17.23zm72.55 7.74h13.78v9.8h-42.4v-9.8h15.53v-44.68q0-2.65.16-5.46l-11.02 9.22q-.96.74-1.88.93-.93.18-1.75.02-.83-.16-1.46-.55-.64-.4-.96-.88l-4.13-5.67 23.37-19.87h10.76zm70.81-66.84-22.74 27.83-2.65 3.28q2.23-1.11 4.8-1.72t5.54-.61q4.34 0 8.45 1.43t7.24 4.32q3.12 2.89 5.03 7.18 1.91 4.3 1.91 10.02 0 5.35-1.96 10.04t-5.51 8.19-8.56 5.51q-5.01 2.02-11.05 2.02-6.15 0-11.03-1.96-4.87-1.96-8.32-5.49-3.44-3.52-5.27-8.48-1.83-4.95-1.83-11 0-5.4 2.2-11.1t6.81-11.84l18.28-24.54q.96-1.28 2.79-2.18t4.21-.9zm-19.77 66.78q3.13 0 5.75-1.06 2.63-1.06 4.51-2.97 1.88-1.9 2.94-4.47t1.06-5.6q0-3.28-1.01-5.91-1.01-2.62-2.86-4.45-1.86-1.83-4.45-2.78-2.6-.95-5.73-.95-3.12 0-5.67 1.06-2.54 1.06-4.34 2.94-1.81 1.88-2.81 4.45-1.01 2.57-1.01 5.54 0 3.18.88 5.8.87 2.63 2.59 4.48 1.72 1.86 4.27 2.89 2.54 1.03 5.88 1.03m89.68-28.46q0 10.02-2.15 17.41-2.15 7.4-5.93 12.22-3.79 4.82-8.96 7.18t-11.16 2.36-11.1-2.36q-5.12-2.36-8.88-7.18t-5.88-12.22q-2.12-7.39-2.12-17.41 0-10.07 2.12-17.44 2.12-7.36 5.88-12.19 3.76-4.82 8.88-7.18 5.11-2.36 11.1-2.36t11.16 2.36 8.96 7.18q3.78 4.83 5.93 12.19 2.15 7.37 2.15 17.44m-13.52 0q0-8.32-1.22-13.78t-3.26-8.69-4.69-4.53-5.51-1.3q-2.81 0-5.43 1.3t-4.64 4.53q-2.01 3.23-3.2 8.69-1.2 5.46-1.2 13.78t1.2 13.78q1.19 5.46 3.2 8.69 2.02 3.24 4.64 4.53 2.62 1.3 5.43 1.3 2.86 0 5.51-1.3 2.65-1.29 4.69-4.53 2.04-3.23 3.26-8.69t1.22-13.78m75 0q0 10.02-2.15 17.41-2.15 7.4-5.93 12.22-3.79 4.82-8.96 7.18t-11.16 2.36-11.1-2.36q-5.12-2.36-8.88-7.18t-5.88-12.22q-2.12-7.39-2.12-17.41 0-10.07 2.12-17.44 2.12-7.36 5.88-12.19 3.76-4.82 8.88-7.18 5.11-2.36 11.1-2.36t11.16 2.36 8.96 7.18q3.78 4.83 5.93 12.19 2.15 7.37 2.15 17.44m-13.52 0q0-8.32-1.22-13.78t-3.26-8.69-4.69-4.53-5.51-1.3q-2.81 0-5.43 1.3t-4.64 4.53q-2.01 3.23-3.2 8.69-1.2 5.46-1.2 13.78t1.2 13.78q1.19 5.46 3.2 8.69 2.02 3.24 4.64 4.53 2.62 1.3 5.43 1.3 2.86 0 5.51-1.3 2.65-1.29 4.69-4.53 2.04-3.23 3.26-8.69t1.22-13.78"/></svg>